<?xml version="1.0" encoding="utf-8"?>
<!-- Generator: Adobe Illustrator 23.1.0, SVG Export Plug-In . SVG Version: 6.00 Build 0)  -->
<svg version="1.1" id="Ebene_1" xmlns="http://www.w3.org/2000/svg" xmlns:xlink="http://www.w3.org/1999/xlink" x="0px" y="0px"
	 viewBox="0 0 1020.2 775.2" style="enable-background:new 0 0 1020.2 775.2;" xml:space="preserve">
<style type="text/css">
	.st0{fill:none;stroke:#E0E0E0;stroke-miterlimit:10;}
	.st1{fill:#FAFAFA;}
	.st2{fill:none;}
	.st3{fill:#8C8C8C;}
	.st4{font-family:'Montserrat-Regular';}
	.st5{font-size:14px;}
	.st6{fill:#848484;}
	.st7{fill:#020203;}
	.st8{fill:#313131;}
	.st9{font-size:36px;}
	.st10{fill:#6084C3;}
	.st11{font-size:18px;}
	.st12{fill:#FFFFFF;}
	.st13{font-family:'Montserrat-Italic';}
	.st14{opacity:0.35;fill:#E0E0E0;}
	.st15{font-family:'OpenSans-Italic';}
	.st16{font-family:'OpenSans-Regular';}
	.st17{font-family:'OpenSans-Bold';}
	.st18{font-size:8px;}
	.st19{font-size:10px;}
	.st20{fill:none;stroke:#FFFFFF;stroke-width:0.9432;stroke-miterlimit:10;}
</style>
<line class="st0" x1="8.3" y1="63.1" x2="998.3" y2="63.1"/>
<g>
	
		<image style="overflow:visible;opacity:0.19;" width="4251" height="3230" xlink:href="5B06A2BA.png"  transform="matrix(0.24 0 0 0.24 0 0)">
	</image>
	<g>
		<path class="st1" d="M986.2,753.2h-966c-6.6,0-12-5.4-12-12v-721c0-6.6,5.4-12,12-12h966c6.6,0,12,5.4,12,12v721
			C998.2,747.8,992.8,753.2,986.2,753.2z"/>
	</g>
</g>
<rect x="72.2" y="35.9" class="st2" width="168" height="11.3"/>
<text transform="matrix(1 0 0 1 72.1827 46.33)" class="st3 st4 st5">full screen</text>
<g>
	<path class="st2" d="M39.3,26.7h28v28h-28V26.7z"/>
	<path class="st6" d="M47.5,43.1h-2.3v5.8H51v-2.3h-3.5V43.1z M45.2,38.4h2.3v-3.5H51v-2.3h-5.8V38.4z M59.2,46.6h-3.5v2.3h5.8v-5.8
		h-2.3V46.6z M55.7,32.6v2.3h3.5v3.5h2.3v-5.8H55.7z"/>
</g>
<path class="st7" d="M898.8,40.6H898l-0.3-0.3c1-1.1,1.6-2.6,1.6-4.2c0-3.6-2.9-6.5-6.5-6.5c-3.6,0-6.5,2.9-6.5,6.5s2.9,6.5,6.5,6.5
	c1.6,0,3.1-0.6,4.2-1.6l0.3,0.3v0.8l5,5l1.5-1.5L898.8,40.6z M892.8,40.6c-2.5,0-4.5-2-4.5-4.5c0-2.5,2-4.5,4.5-4.5s4.5,2,4.5,4.5
	C897.3,38.6,895.3,40.6,892.8,40.6z"/>
<g>
	<path class="st2" d="M927.7,17.9h42v42h-42V17.9z"/>
	<path class="st8" d="M937,34.3c-1.9,0-3.5,1.6-3.5,3.5c0,1.9,1.6,3.5,3.5,3.5s3.5-1.6,3.5-3.5C940.5,35.9,938.9,34.3,937,34.3z
		 M958,34.3c-1.9,0-3.5,1.6-3.5,3.5c0,1.9,1.6,3.5,3.5,3.5c1.9,0,3.5-1.6,3.5-3.5C961.5,35.9,959.9,34.3,958,34.3z M947.5,34.3
		c-1.9,0-3.5,1.6-3.5,3.5c0,1.9,1.6,3.5,3.5,3.5c1.9,0,3.5-1.6,3.5-3.5C951,35.9,949.4,34.3,947.5,34.3z"/>
</g>
<line class="st0" x1="8.3" y1="66.1" x2="998.3" y2="66.1"/>
<g>
	<rect x="70.6" y="124.2" class="st2" width="637.9" height="34.4"/>
	<text transform="matrix(1 0 0 1 70.5978 150.9293)" class="st3 st4 st9">Headline</text>
</g>
<rect x="393.3" y="392.6" class="st10" width="106" height="15"/>
<rect x="71.9" y="186.1" class="st2" width="839.7" height="497.1"/>
<text transform="matrix(1 0 0 1 71.88 199.5016)"><tspan x="0" y="0" class="st8 st4 st11">Lorem ipsum dolor sit amet, consectetuer adipiscing elit, sed diam nonummy nibh euismod </tspan><tspan x="0" y="26" class="st8 st4 st11">tincidunt ut laoreet dolore magna aliquam erat volutpat. Ut wisi enim ad minim veniam, quis </tspan><tspan x="0" y="52" class="st8 st4 st11">nostrud exerci tation ullamcorper suscipit lobortis nisl ut aliquip ex ea commodo consequat. </tspan><tspan x="0" y="78" class="st8 st4 st11">Duis autem vel eum iriure dolor in hendrerit in vulputate velit esse molestie consequat, vel </tspan><tspan x="0" y="104" class="st8 st4 st11">illum dolore eu feugiat nulla facilisis at vero eros et accumsan et iusto odio dignissim qui </tspan><tspan x="0" y="130" class="st8 st4 st11">blandit praesent luptatum zzril delenit augue duis dolore te feugait nulla facilisi.</tspan><tspan x="0" y="182" class="st8 st4 st11">Ut wisi enim ad minim veniam, quis nostrud exerci tation ullamcorper suscipit lobortis nisl ut </tspan><tspan x="0" y="208" class="st8 st4 st11">aliquip ex ea commodo consequat. </tspan><tspan x="321" y="208" class="st12 st13 st11">Duis autem</tspan><tspan x="427.9" y="208" class="st8 st4 st11"> vel eum iriure dolor in hendrerit in vulputate </tspan><tspan x="0" y="234" class="st8 st4 st11">velit esse molestie consequat, vel illum dolore eu feugiat nulla facilisis at vero eros et ac</tspan><tspan x="783.7" y="234" class="st8 st4 st11">-</tspan><tspan x="0" y="260" class="st8 st4 st11">cumsan et iusto odio dignissim qui blandit praesent luptatum zzril delenit augue duis dolore </tspan><tspan x="0" y="286" class="st8 st4 st11">te feugait nulla facilisi.</tspan><tspan x="0" y="312" class="st8 st4 st11"> </tspan></text>
<path class="st3" d="M595.4,388.6H330.3c-2.8,0-5-2.2-5-5v-17c0-2.8,2.2-5,5-5h265.1c2.8,0,5,2.2,5,5v17
	C600.4,386.4,598.2,388.6,595.4,388.6z"/>
<rect x="352.3" y="361.6" class="st14" width="27" height="27"/>
<rect x="463.2" y="361.6" class="st14" width="1" height="27"/>
<rect x="571.3" y="361.6" class="st14" width="1" height="27"/>
<g>
	<path class="st12" d="M423.7,376.8c0,0.9-0.3,1.6-1,2.1c-0.7,0.5-1.6,0.7-2.8,0.7c-1.3,0-2.3-0.2-3-0.6v-1.3c0.5,0.2,1,0.4,1.5,0.6
		c0.5,0.1,1,0.2,1.5,0.2c0.8,0,1.3-0.1,1.8-0.4c0.4-0.2,0.6-0.6,0.6-1.1c0-0.4-0.2-0.7-0.5-1c-0.3-0.3-1-0.6-1.9-0.9
		c-0.9-0.3-1.5-0.6-1.9-0.9c-0.4-0.2-0.7-0.5-0.8-0.8c-0.2-0.3-0.3-0.7-0.3-1.1c0-0.8,0.3-1.4,1-1.9c0.6-0.5,1.5-0.7,2.6-0.7
		c1,0,2,0.2,3,0.6l-0.5,1.2c-1-0.4-1.8-0.6-2.6-0.6c-0.7,0-1.2,0.1-1.6,0.3s-0.5,0.5-0.5,0.9c0,0.3,0.1,0.5,0.2,0.7
		c0.1,0.2,0.3,0.4,0.6,0.5s0.9,0.4,1.7,0.7c1.1,0.4,1.9,0.8,2.3,1.3C423.5,375.6,423.7,376.2,423.7,376.8z"/>
	<path class="st12" d="M415.9,375.1v-0.9h8.6v0.9H415.9z"/>
</g>
<rect x="344.2" y="369.2" class="st2" width="43.1" height="20.4"/>
<text transform="matrix(1 0 0 1 363.9826 379.857)" class="st12 st15 st5">i</text>
<rect x="371.2" y="368.9" class="st2" width="43.1" height="19"/>
<text transform="matrix(1 0 0 1 387.6642 379.5609)" class="st12 st16 st5" style="text-decoration: underline;">U</text>
<rect x="458.2" y="369" class="st2" width="43.1" height="19"/>
<text transform="matrix(1 0 0 1 472.1554 379.6551)"><tspan x="0" y="0" class="st12 st17 st5">H</tspan><tspan x="10.7" y="0" class="st12 st17 st18">1</tspan></text>
<rect x="485.1" y="371.9" class="st2" width="43.1" height="19"/>
<text transform="matrix(1 0 0 1 499.9596 379.4715)" class="st12 st17 st19">H2</text>
<rect x="317.2" y="369.2" class="st2" width="43.1" height="20.4"/>
<text transform="matrix(1 0 0 1 334.0568 379.857)" class="st12 st17 st5">B</text>
<path class="st12" d="M527.3,373.6c-0.6,0-1,0.5-1,1s0.5,1,1,1s1-0.5,1-1S527.8,373.6,527.3,373.6z M527.3,369.5c-0.6,0-1,0.5-1,1
	s0.5,1,1,1s1-0.5,1-1S527.8,369.5,527.3,369.5z M527.3,377.7c-0.6,0-1,0.5-1,1s0.5,1,1,1c0.6,0,1-0.5,1-1S527.8,377.7,527.3,377.7z
	 M529.3,379.4h9.5V378h-9.5V379.4z M529.3,375.3h9.5v-1.4h-9.5V375.3z M529.3,369.9v1.4h9.5v-1.4H529.3z"/>
<g>
	<path class="st20" d="M561.5,379.3h-5.7c-1.1,0-2-0.9-2-2v-5.7c0-1.1,0.9-2,2-2h5.7c1.1,0,2,0.9,2,2v5.7
		C563.5,378.4,562.6,379.3,561.5,379.3z"/>
	<g>
		<path class="st2" d="M541.1,354.8h20v20h-20V354.8z"/>
		<path class="st12" d="M557.7,376l-1.6-1.6l-0.5,0.5l2.1,2.1l4.5-4.5l-0.5-0.5L557.7,376z"/>
	</g>
</g>
<path class="st12" d="M589.4,369.5h-8.2c-0.6,0-1,0.5-1,1v6.1c0,0.6,0.5,1,1,1h7.1l2,2v-9.2C590.4,370,590,369.5,589.4,369.5z
	 M587.9,375.6h-5.1c-0.3,0-0.5-0.2-0.5-0.5c0-0.3,0.2-0.5,0.5-0.5h5.1c0.3,0,0.5,0.2,0.5,0.5C588.4,375.4,588.1,375.6,587.9,375.6z
	 M587.9,374.1h-5.1c-0.3,0-0.5-0.2-0.5-0.5s0.2-0.5,0.5-0.5h5.1c0.3,0,0.5,0.2,0.5,0.5S588.1,374.1,587.9,374.1z M587.9,372.6h-5.1
	c-0.3,0-0.5-0.2-0.5-0.5s0.2-0.5,0.5-0.5h5.1c0.3,0,0.5,0.2,0.5,0.5S588.1,372.6,587.9,372.6z"/>
<path class="st12" d="M441,374.2c0.2-1,1.1-1.6,2.1-1.6h1.9c0.3,0,0.6-0.3,0.6-0.6s-0.3-0.6-0.6-0.6h-1.9c-1.7,0-3.2,1.3-3.4,3
	c-0.2,2,1.3,3.6,3.3,3.6h2c0.3,0,0.6-0.3,0.6-0.6c0-0.3-0.3-0.6-0.6-0.6h-2C441.8,376.7,440.8,375.5,441,374.2z M444.3,375.3h3.9
	c0.4,0,0.7-0.3,0.7-0.7c0-0.4-0.3-0.7-0.7-0.7h-3.9c-0.4,0-0.7,0.3-0.7,0.7C443.7,375,444,375.3,444.3,375.3z M449.5,371.3h-1.9
	c-0.3,0-0.6,0.3-0.6,0.6s0.3,0.6,0.6,0.6h1.9c1,0,1.9,0.7,2.1,1.6c0.2,1.3-0.7,2.4-2,2.4h-2c-0.3,0-0.6,0.3-0.6,0.6
	c0,0.3,0.3,0.6,0.6,0.6h2c1.9,0,3.5-1.6,3.3-3.6C452.7,372.6,451.2,371.3,449.5,371.3z"/>
</svg>
