<?xml version="1.0"?>
<svg xmlns="http://www.w3.org/2000/svg" xmlns:xlink="http://www.w3.org/1999/xlink" xmlns:svgjs="http://svgjs.com/svgjs" version="1.1" width="512" height="512" x="0" y="0" viewBox="0 0 511.998 511.998" style="enable-background:new 0 0 512 512" xml:space="preserve" class=""><g>
<path xmlns="http://www.w3.org/2000/svg" style="" d="M339.31,293.145h-52.924l3.647,12.626L256,326.398l-34.034-20.627l3.647-12.626h-52.924  c-28.692,0-51.958,23.257-51.958,51.958v31.999c37.561,28.558,84.445,45.502,135.269,45.502s97.708-16.945,135.269-45.502v-31.999  C391.269,316.402,368.002,293.145,339.31,293.145z" fill="#ffd803" data-original="#ff5b70" class=""/>
<rect xmlns="http://www.w3.org/2000/svg" x="153.58" y="142.71" style="" width="50.39" height="57.34" fill="#ffd803" data-original="#fdb655" class=""/>
<rect xmlns="http://www.w3.org/2000/svg" x="203.97" y="142.71" style="" width="154.45" height="57.34" fill="#bae8e8" data-original="#6becfe" class=""/>
<path xmlns="http://www.w3.org/2000/svg" style="" d="M157.053,142.713h17.228v-26.482h86.455l25.955-21.449l28.777,21.449h22.25v26.482h19.523  c3.087-13.014,4.998-29.298,2.998-47.84c-4.736-43.905-18.772-81.418-74.774-67.043c0,0-40.56,6.253-79.509,7.813  c-0.613,0.024-1.234,0.058-1.865,0.101c-17.661,1.196-32.14,13.726-41.7,30.451c-13.252,23.185-14.916,51.241-5.455,76.215  L157.053,142.713z" fill="#272343" data-original="#5377a2" class=""/>
<g xmlns="http://www.w3.org/2000/svg">
	<path style="" d="M337.093,200.053H174.906c4.026,32.546,27.195,59.15,57.89,68.227l-10.83,37.492L256,326.398   l34.034-20.627l-10.83-37.492C309.899,259.203,333.068,232.599,337.093,200.053z" fill="#ffd8b9" data-original="#ffd8b9" class=""/>
	<polygon style="" points="337.718,142.713 337.718,116.231 315.468,116.231 286.691,94.782 260.736,116.231    174.281,116.231 174.281,142.713  " fill="#ffd8b9" data-original="#ffd8b9" class=""/>
</g>
<path xmlns="http://www.w3.org/2000/svg" d="M316.239,181.383c-0.66,0-1.31-0.07-1.96-0.2c-0.64-0.12-1.27-0.32-1.87-0.57s-1.18-0.56-1.73-0.92  c-0.54-0.36-1.06-0.78-1.52-1.24s-0.88-0.97-1.24-1.52c-0.36-0.54-0.67-1.12-0.92-1.73c-0.25-0.6-0.44-1.23-0.57-1.87  s-0.2-1.3-0.2-1.95c0-2.63,1.07-5.21,2.93-7.07c0.46-0.46,0.98-0.88,1.52-1.24c0.55-0.36,1.13-0.67,1.73-0.92s1.23-0.45,1.87-0.57  c1.29-0.26,2.62-0.26,3.91,0c0.64,0.12,1.27,0.32,1.87,0.57s1.18,0.56,1.72,0.92c0.55,0.36,1.06,0.78,1.53,1.24  c1.86,1.86,2.92,4.44,2.92,7.07c0,0.65-0.06,1.31-0.19,1.95s-0.32,1.27-0.57,1.87c-0.25,0.61-0.56,1.19-0.92,1.73  c-0.37,0.55-0.78,1.06-1.24,1.52c-0.47,0.46-0.98,0.88-1.53,1.24c-0.54,0.36-1.12,0.67-1.72,0.92s-1.23,0.45-1.87,0.57  C317.539,181.313,316.889,181.383,316.239,181.383z" fill="#272343" data-original="#000000" style="" class=""/>
<path xmlns="http://www.w3.org/2000/svg" d="M139.489,485.443c-0.65,0-1.31-0.06-1.95-0.19s-1.27-0.33-1.87-0.58c-0.61-0.25-1.19-0.55-1.73-0.91  c-0.55-0.37-1.06-0.79-1.52-1.25s-0.88-0.97-1.24-1.52c-0.36-0.54-0.67-1.12-0.92-1.72c-0.25-0.61-0.44-1.24-0.57-1.87  c-0.13-0.65-0.2-1.31-0.2-1.96s0.07-1.31,0.2-1.95c0.13-0.64,0.32-1.27,0.57-1.87c0.25-0.61,0.56-1.19,0.92-1.73  c0.36-0.55,0.78-1.06,1.24-1.52s0.97-0.88,1.52-1.24c0.54-0.36,1.12-0.67,1.73-0.92c0.6-0.25,1.23-0.44,1.87-0.57  c3.25-0.66,6.7,0.41,9.02,2.73c1.86,1.86,2.93,4.44,2.93,7.07c0,0.65-0.06,1.31-0.19,1.96c-0.13,0.63-0.32,1.26-0.57,1.87  c-0.25,0.6-0.56,1.18-0.92,1.72c-0.37,0.55-0.79,1.06-1.25,1.52s-0.97,0.88-1.52,1.25c-0.54,0.36-1.12,0.66-1.72,0.91  c-0.61,0.25-1.24,0.45-1.87,0.58C140.799,485.383,140.139,485.443,139.489,485.443z" fill="#272343" data-original="#000000" style="" class=""/>
<path xmlns="http://www.w3.org/2000/svg" d="M101.014,475.095c-1.032,0-2.082-0.161-3.115-0.5c-29.376-9.624-52.792-21.565-69.596-35.49  C9.787,423.762,0,406.102,0,388.033c0-22.316,14.626-43.481,42.296-61.207c4.649-2.979,10.835-1.625,13.814,3.026  c2.979,4.65,1.624,10.836-3.026,13.815C37.992,353.336,20,368.881,20,388.033c0,25.043,31.449,50.297,84.125,67.556  c5.248,1.72,8.109,7.368,6.39,12.616C109.134,472.419,105.22,475.095,101.014,475.095z" fill="#272343" data-original="#000000" style="" class=""/>
<polygon xmlns="http://www.w3.org/2000/svg" style="" points="424.273,307.633 452.451,362.861 486.19,310.845 " fill="#ffd803" data-original="#fdb655" class=""/>
<path xmlns="http://www.w3.org/2000/svg" d="M397.321,385.063c2.487-1.891,3.948-4.836,3.948-7.961v-31.999c0-34.164-27.794-61.958-61.958-61.958h-45.404l-2.487-8.61  c27.4-11.443,47.59-35.495,54.074-64.482h12.928c5.523,0,10-4.477,10-10v-57.341c0-0.921-0.135-1.81-0.368-2.657  c3.078-15.22,3.8-30.755,2.128-46.255c-2.646-24.531-8.493-54.636-30.404-69.822c-14.161-9.814-33.101-11.818-56.298-5.963  c-4.579,0.687-42.18,6.203-77.92,7.634c-0.706,0.028-1.421,0.067-2.143,0.116c-19.745,1.337-37.398,13.933-49.706,35.465  c-13.214,23.118-16.299,50.591-8.835,76.563c-0.823,1.453-1.298,3.128-1.298,4.917v57.341c0,5.523,4.477,10,10,10h12.929  c6.485,28.985,26.677,53.038,54.074,64.482l-2.487,8.61H172.69c-34.164,0-61.958,27.794-61.958,61.958V377.1  c0,3.125,1.46,6.069,3.948,7.961c40.907,31.102,89.775,47.542,141.321,47.542S356.414,416.165,397.321,385.063z M348.421,190.053  L348.421,190.053H213.967v-8.67h69.497c5.523,0,10-4.477,10-10s-4.477-10-10-10h-69.497v-8.67h134.454l0,0L348.421,190.053  L348.421,190.053z M267.106,123.939l19.903-16.448l22.482,16.757c1.727,1.287,3.823,1.982,5.976,1.982h12.25v6.481H184.281l0,0  v-6.481h76.455c0.291,0,0.58-0.013,0.868-0.038C263.617,126.018,265.538,125.236,267.106,123.939z M171.074,71.157  c5.142-8.995,16.356-24.262,33.698-25.436c0.535-0.037,1.063-0.065,1.585-0.086c39.064-1.565,78.953-7.663,80.632-7.922  c0.324-0.05,0.645-0.116,0.962-0.197c17.798-4.569,31.023-3.62,40.433,2.901c11.741,8.137,18.704,25.782,21.912,55.528  c1.328,12.309,0.923,24.642-1.201,36.767h-1.378v-16.481c0-5.523-4.477-10-10-10h-18.933l-26.117-19.467  c-3.694-2.755-8.794-2.627-12.346,0.309l-23.182,19.158h-82.858c-5.523,0-10,4.477-10,10v16.481h-0.057  C158.09,111.789,160.486,89.681,171.074,71.157z M163.578,152.712L163.578,152.712h30.39v37.341h-30.39l0,0V152.712z   M187.142,210.053L187.142,210.053h137.715c-6.738,23.145-24.842,41.645-48.49,48.637c-5.273,1.559-8.298,7.082-6.772,12.365  l8.705,30.134l-22.301,13.516l-22.301-13.516l8.705-30.134c1.526-5.283-1.499-10.806-6.772-12.365  C211.984,251.698,193.88,233.198,187.142,210.053z M130.73,345.103c0-23.136,18.822-41.958,41.958-41.958h39.628  c-0.03,0.11-0.05,0.221-0.076,0.331c-0.032,0.137-0.067,0.273-0.094,0.41c-0.026,0.136-0.044,0.273-0.064,0.409  c-0.02,0.135-0.044,0.27-0.058,0.405c-0.015,0.14-0.021,0.279-0.031,0.418c-0.009,0.132-0.021,0.264-0.024,0.395  c-0.004,0.141,0.001,0.281,0.004,0.422c0.002,0.129,0.001,0.259,0.008,0.388c0.008,0.141,0.024,0.28,0.038,0.419  c0.013,0.128,0.021,0.256,0.039,0.382c0.019,0.141,0.047,0.279,0.073,0.419c0.022,0.123,0.041,0.247,0.068,0.37  c0.031,0.141,0.071,0.279,0.108,0.418c0.032,0.119,0.059,0.239,0.095,0.356c0.042,0.138,0.093,0.273,0.141,0.409  c0.041,0.115,0.077,0.231,0.122,0.345c0.054,0.136,0.116,0.268,0.175,0.401c0.049,0.11,0.094,0.222,0.147,0.33  c0.065,0.133,0.139,0.262,0.21,0.392c0.057,0.104,0.109,0.21,0.17,0.312c0.077,0.131,0.164,0.256,0.247,0.383  c0.064,0.096,0.123,0.196,0.189,0.29c0.091,0.129,0.191,0.252,0.288,0.376c0.068,0.087,0.132,0.177,0.203,0.262  c0.104,0.125,0.218,0.243,0.329,0.363c0.073,0.079,0.141,0.161,0.217,0.238c0.12,0.122,0.25,0.237,0.377,0.353  c0.074,0.068,0.144,0.139,0.22,0.205c0.145,0.125,0.299,0.241,0.452,0.358c0.066,0.051,0.128,0.106,0.196,0.155  c0.224,0.163,0.456,0.317,0.697,0.463l34.034,20.627c1.593,0.965,3.388,1.448,5.183,1.448s3.59-0.483,5.183-1.448l34.034-20.627  c0.24-0.145,0.472-0.3,0.696-0.462c0.085-0.062,0.163-0.13,0.245-0.194c0.135-0.105,0.273-0.208,0.402-0.319  c0.092-0.08,0.177-0.166,0.266-0.248c0.111-0.103,0.225-0.202,0.33-0.309c0.09-0.092,0.173-0.19,0.259-0.285  c0.096-0.105,0.195-0.207,0.286-0.316c0.084-0.101,0.161-0.207,0.241-0.311c0.084-0.109,0.171-0.215,0.251-0.327  c0.078-0.111,0.148-0.226,0.222-0.34c0.072-0.111,0.147-0.219,0.215-0.333c0.07-0.119,0.132-0.242,0.198-0.363  c0.061-0.113,0.126-0.224,0.182-0.34c0.061-0.124,0.113-0.252,0.169-0.379c0.052-0.117,0.107-0.233,0.154-0.352  c0.051-0.129,0.093-0.261,0.138-0.391c0.042-0.121,0.088-0.24,0.125-0.363c0.04-0.132,0.072-0.266,0.107-0.4  c0.033-0.125,0.069-0.248,0.096-0.374c0.03-0.135,0.051-0.272,0.075-0.408c0.022-0.127,0.048-0.253,0.066-0.381  c0.019-0.138,0.029-0.276,0.042-0.415c0.012-0.129,0.028-0.257,0.035-0.387c0.008-0.138,0.007-0.277,0.009-0.416  c0.002-0.132,0.007-0.263,0.004-0.395c-0.004-0.138-0.016-0.277-0.025-0.415c-0.009-0.133-0.015-0.266-0.029-0.399  c-0.015-0.139-0.039-0.277-0.06-0.415c-0.02-0.134-0.037-0.267-0.063-0.4c-0.027-0.138-0.062-0.275-0.094-0.413  c-0.026-0.11-0.045-0.22-0.075-0.33h39.628c23.136,0,41.958,18.823,41.958,41.958v26.971c-36.576,26.532-79.781,40.53-125.269,40.53  s-88.693-13.998-125.269-40.53L130.73,345.103L130.73,345.103z" fill="#272343" data-original="#000000" style="" class=""/>
<path xmlns="http://www.w3.org/2000/svg" d="M482.032,335.632l12.548-19.345c1.944-2.997,2.142-6.804,0.518-9.986c-1.623-3.183-4.822-5.257-8.39-5.442l-61.917-3.211  c-3.563-0.19-6.963,1.547-8.908,4.544c-1.944,2.998-2.142,6.804-0.518,9.987l28.177,55.228c1.624,3.182,4.822,5.256,8.39,5.441  c0.174,0.009,0.347,0.014,0.52,0.014c3.375,0,6.539-1.707,8.388-4.558l10.241-15.789c10.695,8.916,20.917,21.185,20.917,35.519  c0,21.83-23.98,44.023-65.792,60.888c-45.302,18.272-105.75,28.336-170.207,28.336c-20.523,0-40.907-1.038-60.583-3.084  c-5.986-0.623-11.985-1.348-17.83-2.156c-5.464-0.755-10.519,3.066-11.274,8.537c-0.756,5.471,3.066,10.519,8.537,11.274  c6.065,0.838,12.289,1.591,18.497,2.237c20.362,2.118,41.441,3.192,62.653,3.192c66.96,0,130.065-10.579,177.688-29.788  c50.5-20.369,78.311-48.58,78.311-79.436C511.999,369.369,501.672,351.37,482.032,335.632z M453.487,342.888l-12.434-24.371  l27.322,1.417L453.487,342.888z" fill="#272343" data-original="#000000" style="" class=""/>
<g xmlns="http://www.w3.org/2000/svg">
</g>
<g xmlns="http://www.w3.org/2000/svg">
</g>
<g xmlns="http://www.w3.org/2000/svg">
</g>
<g xmlns="http://www.w3.org/2000/svg">
</g>
<g xmlns="http://www.w3.org/2000/svg">
</g>
<g xmlns="http://www.w3.org/2000/svg">
</g>
<g xmlns="http://www.w3.org/2000/svg">
</g>
<g xmlns="http://www.w3.org/2000/svg">
</g>
<g xmlns="http://www.w3.org/2000/svg">
</g>
<g xmlns="http://www.w3.org/2000/svg">
</g>
<g xmlns="http://www.w3.org/2000/svg">
</g>
<g xmlns="http://www.w3.org/2000/svg">
</g>
<g xmlns="http://www.w3.org/2000/svg">
</g>
<g xmlns="http://www.w3.org/2000/svg">
</g>
<g xmlns="http://www.w3.org/2000/svg">
</g>
</g></svg>
