<?xml version="1.0" encoding="iso-8859-1"?>
<!-- Generator: Adobe Illustrator 19.0.0, SVG Export Plug-In . SVG Version: 6.00 Build 0)  -->
<svg version="1.1" id="Capa_1" xmlns="http://www.w3.org/2000/svg" xmlns:xlink="http://www.w3.org/1999/xlink" x="0px" y="0px"
	 viewBox="0 0 512 512" style="enable-background:new 0 0 512 512;" xml:space="preserve">
<g>
	<g>
		<path fill="#272343" d="M487.294,246.952h-0.753v-9.357c0-21.532-16.876-39.049-37.619-39.049H313.578c-18.746,0-34.547,14.294-37.218,33.435
			h-40.716c-2.672-19.141-18.473-33.435-37.218-33.435h-90.48l-9.807-45.009c-0.75-3.439-3.794-5.892-7.314-5.892h-10.98v-8.711
			c0-8.13-6.614-14.743-14.743-14.743H14.743C6.614,124.192,0,130.805,0,138.935v37.383c0,8.13,6.614,14.743,14.743,14.743H65.1
			c8.13,0,14.743-6.613,14.743-14.743v-13.701h4.948l7.829,35.93H63.077c-20.742,0-37.619,17.518-37.619,39.049v9.357h-0.753
			C11.082,246.952,0,258.036,0,271.658v178.713c0,10.106,3.883,19.661,10.933,26.902l25.807,26.505
			c4.656,5.157,11.094,7.788,17.562,7.787c5.588,0,11.198-1.965,15.693-5.96l2.231-1.983c5.478-4.868,5.974-13.287,1.17-18.695
			l-33.473-38.659V331.962c6.389,5.198,14.427,8.308,23.155,8.308h142.397c10.42,0,20.463-4.541,27.551-12.46
			c7.5-8.376,11.079-19.695,9.821-31.053l-2.644-23.855h31.595l-2.644,23.856c-1.259,11.358,2.32,22.677,9.821,31.052
			c7.089,7.919,17.132,12.46,27.551,12.46h107.138l-10.656,55.891H384.25v-13.701c0-8.13-6.614-14.743-14.743-14.743H319.15
			c-8.13,0-14.743,6.613-14.743,14.743v37.383c0,8.13,6.614,14.743,14.743,14.743h50.357c8.13,0,14.743-6.613,14.743-14.743v-8.711
			h24.951c3.594,0,6.68-2.554,7.353-6.083l12.351-64.778h20.019c8.728,0,16.765-3.11,23.155-8.308v114.305l-33.41,38.589
			c-4.868,5.48-4.372,13.899,1.106,18.767l2.231,1.982c4.496,3.996,10.104,5.961,15.693,5.961c6.466,0,12.907-2.631,17.562-7.787
			l25.807-26.505c7.05-7.243,10.934-16.797,10.934-26.903V271.658C512,258.036,500.918,246.952,487.294,246.952z M64.873,176.091
			H14.971v-36.928h49.903V176.091z M14.971,271.658c0-5.367,4.367-9.735,9.735-9.735h0.753v14.971H14.971V271.658z M61.043,493.532
			l-0.994,0.884c-3.573,3.175-9.065,2.853-12.244-0.722c-0.075-0.085-0.152-0.168-0.231-0.249L21.66,466.83
			c-4.314-4.43-6.689-10.276-6.689-16.459V291.864h9.981v157.193c0,1.799,0.648,3.539,1.826,4.899L61.043,493.532z M221.873,317.824
			c-4.316,4.821-10.139,7.474-16.399,7.474H63.077c-12.489,0-22.648-10.802-22.648-24.078v-63.625
			c0-13.277,10.16-24.078,22.648-24.078h32.806l1.304,5.988h-34.11c-9.186,0-16.659,8.115-16.659,18.09v63.625
			c0,9.976,7.473,18.09,16.659,18.09h82.939c4.953,0,8.509-4.783,7.075-9.524c-0.019-0.063-0.038-0.127-0.057-0.189
			c-0.933-3.125-3.814-5.258-7.075-5.258H63.077c-0.58,0-1.689-1.215-1.689-3.119v-63.625c0-1.904,1.109-3.119,1.689-3.119h37.372
			l2.522,11.574c0.763,3.502,3.862,5.893,7.307,5.893c0.618,0,1.247-0.077,1.876-0.239c3.945-1.013,6.251-5.14,5.385-9.12
			l-1.767-8.108h82.652c0.466,0,1.475,0.922,1.662,2.614l7.05,63.624c0.133,1.198-0.196,2.368-0.876,3.128
			c-0.446,0.498-0.685,0.498-0.785,0.498h-14.251c-3.312,0-6.215,2.2-7.112,5.387c-0.018,0.063-0.036,0.127-0.054,0.19
			c-1.345,4.709,2.216,9.394,7.113,9.394h14.304c4.531,0,8.77-1.946,11.939-5.481c3.527-3.941,5.205-9.322,4.602-14.763
			l-7.05-63.625c-1.006-9.085-8.117-15.936-16.541-15.936h-85.914l-1.304-5.988h87.219c11.48,0,21.149,9.141,22.493,21.263
			l7.05,63.625C228.756,305.538,226.536,312.616,221.873,317.824z M272.468,257.931h-32.936v-10.979h32.936V257.931z
			 M369.279,419.615h-49.903v-36.928h49.903V419.615z M420.515,304.34H306.526c-0.102,0-0.339,0-0.782-0.495
			c-0.684-0.763-1.012-1.933-0.879-3.13l7.05-63.626c0.188-1.691,1.196-2.613,1.662-2.613h61.691v29.713
			c0,10.307,8.385,18.693,18.692,18.693h30.647L420.515,304.34z M393.96,267.911c-2.052,0-3.722-1.67-3.722-3.722v-29.713h58.685
			c0.065,0,0.139,0.02,0.215,0.05c0.594,0.466,0.984,1.182,0.984,1.994v31.391h-16.56c-0.008,0-0.016,0-0.023,0H393.96z
			 M450.612,282.882v18.339c0,1.904-1.109,3.119-1.689,3.119h-13.168l4.091-21.458H450.612z M448.923,325.298h-17.164l1.142-5.988
			h16.023c9.186,0,16.659-8.115,16.659-18.09v-63.625c0-9.976-7.473-18.09-16.659-18.09H313.578
			c-8.424,0-15.535,6.851-16.541,15.935l-7.05,63.626c-0.603,5.44,1.075,10.821,4.605,14.765c3.166,3.533,7.405,5.478,11.936,5.478
			h111.134l-1.142,5.988H306.526c-6.259,0-12.082-2.655-16.399-7.474c-4.663-5.209-6.884-12.286-6.094-19.418l7.05-63.626
			c1.344-12.122,11.013-21.263,22.493-21.263h135.347c12.489,0,22.648,10.802,22.648,24.078v63.626h0
			C471.571,314.497,461.411,325.298,448.923,325.298z M497.029,450.371c0,6.183-2.375,12.029-6.689,16.459l-25.914,26.616
			c-0.079,0.081-0.156,0.164-0.231,0.249c-3.178,3.575-8.67,3.898-12.244,0.721l-0.994-0.883l34.265-39.575
			c1.179-1.36,1.826-3.1,1.826-4.899V291.864h9.98V450.371z M497.029,276.894h-10.487v-14.971h0.753
			c5.367,0,9.735,4.367,9.735,9.735V276.894z"/>
	</g>
</g>
<g>
	<g>
		<circle cx="403.711" cy="249.452" r="4.99"/>
	</g>
</g>
<g>
	<g>
		<circle cx="421.177" cy="249.951" r="4.99"/>
	</g>
</g>
<g>
	<g>
		<circle cx="438.643" cy="250.45" r="4.99"/>
	</g>
</g>
<g>
	<g>
		<path  d="M131.743,283.88c-7.154,0-12.975-5.821-12.975-12.975c0-4.134-3.35-7.485-7.485-7.485s-7.485,3.351-7.485,7.485
			c0,15.409,12.536,27.945,27.945,27.945c4.135,0,7.485-3.351,7.485-7.485C139.228,287.232,135.878,283.88,131.743,283.88z"/>
	</g>
</g>
<g>
	<g>
		<path  d="M131.743,242.96c-4.135,0-7.485,3.352-7.485,7.485s3.35,7.485,7.485,7.485c7.154,0,12.975,5.821,12.975,12.975
			c0,4.134,3.35,7.485,7.485,7.485c4.135,0,7.485-3.352,7.485-7.485C159.688,255.497,147.152,242.96,131.743,242.96z"/>
	</g>
</g>
<g>
	<g>
		<circle cx="132.242" cy="271.409" r="7.485"/>
	</g>
</g>
<g>
	<g>
		<path d="M358.799,252.94h-27.945c-4.135,0-7.485,3.351-7.485,7.485c0,4.134,3.35,7.485,7.485,7.485h27.945
			c4.135,0,7.485-3.351,7.485-7.485C366.285,256.292,362.934,252.94,358.799,252.94z"/>
	</g>
</g>
<g>
	<g>
		<path d="M373.77,280.886h-42.916c-4.135,0-7.485,3.351-7.485,7.485s3.35,7.485,7.485,7.485h42.916
			c4.135,0,7.485-3.352,7.485-7.485S377.905,280.886,373.77,280.886z"/>
	</g>
</g>
<g>
	<g>
		<path  d="M379.184,0.434H132.816c-10.514,0-19.038,8.523-19.038,19.038v98.657c0,9.52,7.031,17.407,16.168,18.798l13.888,48.702
			c0.938,3.29,3.935,5.434,7.195,5.434c0.863,0,1.747-0.152,2.614-0.471c3.711-1.367,5.602-5.517,4.517-9.32l-12.577-44.106h42.806
			l-10.015,43.203c-0.933,4.027,1.575,8.048,5.602,8.982c0.568,0.132,1.137,0.195,1.697,0.195c3.404,0,6.483-2.337,7.286-5.797
			l10.799-46.584h77.167c4.134,0,7.485-3.352,7.485-7.485s-3.351-7.485-7.485-7.485H132.816c-2.247,0-4.067-1.821-4.067-4.067
			V19.471c0-2.247,1.821-4.067,4.067-4.067h246.369c2.247,0,4.067,1.821,4.067,4.067v98.657c0,2.247-1.821,4.067-4.067,4.067
			h-49.552c-4.134,0-7.485,3.351-7.485,7.485s3.352,7.485,7.485,7.485h49.552c10.514,0,19.038-8.523,19.038-19.038V19.471
			C398.222,8.957,389.699,0.434,379.184,0.434z"/>
	</g>
</g>
<g>
	<g>
		<path d="M238.769,52.941l-10.445-3.108c-4.413-8.374-12.05-15.041-21.818-17.947c-9.766-2.906-19.805-1.5-28.078,3.1
			l-10.447-3.108c-5.493-1.635-11.294-1.032-16.335,1.697c-5.04,2.729-8.716,7.257-10.351,12.75
			c-1.635,5.493-1.032,11.295,1.697,16.335c2.728,5.041,7.256,8.718,12.75,10.353l4.763,1.417
			c2.718,12.588,12.034,23.365,25.224,27.29c3.453,1.028,6.938,1.517,10.371,1.517c9.676,0,18.904-3.895,25.665-10.579l4.767,1.418
			c2.034,0.605,4.088,0.893,6.109,0.893c9.249,0,17.808-6.034,20.577-15.341C256.591,68.288,250.111,56.317,238.769,52.941z
			 M161.2,56.415c-0.24,0.804-0.439,1.611-0.621,2.418l-0.57-0.17c-1.661-0.494-3.029-1.606-3.854-3.13
			c-0.823-1.523-1.006-3.278-0.512-4.938s1.605-3.03,3.13-3.854c1.523-0.825,3.277-1.008,4.938-0.513l1.958,0.583
			C163.764,49.709,162.239,52.924,161.2,56.415z M189.997,87.371c-4.443-1.322-8.136-3.968-10.787-7.376l23.85,7.096
			C198.978,88.496,194.44,88.692,189.997,87.371z M216.685,72.923c-0.241,0.809-0.53,1.591-0.855,2.349l-40.847-12.154
			c0.143-0.812,0.327-1.625,0.568-2.434c2.77-9.307,11.329-15.341,20.578-15.341c2.021,0,4.075,0.288,6.109,0.893
			C213.577,49.611,220.058,61.582,216.685,72.923z M238.867,75.358c-1.02,3.428-4.639,5.386-8.068,4.367l-0.566-0.169
			c0.289-0.774,0.561-1.561,0.799-2.365c1.039-3.491,1.52-7.016,1.509-10.484l1.956,0.582
			C237.928,68.311,239.887,71.93,238.867,75.358z"/>
	</g>
</g>
<g>
	<g>
		<path d="M285.942,61.315c-12.933,0-23.454,10.521-23.454,23.454s10.521,23.454,23.454,23.454s23.454-10.521,23.454-23.454
			S298.874,61.315,285.942,61.315z M285.942,93.252c-4.678,0-8.483-3.806-8.483-8.483s3.806-8.483,8.483-8.483
			s8.483,3.806,8.483,8.483S290.619,93.252,285.942,93.252z"/>
	</g>
</g>
<g>
	<g>
		<path d="M344.827,66.305c-10.181,0-18.464,8.283-18.464,18.464c0,10.181,8.283,18.464,18.464,18.464
			c10.181,0,18.464-8.283,18.464-18.464C363.29,74.588,355.008,66.305,344.827,66.305z M344.827,88.262
			c-1.926,0-3.493-1.567-3.493-3.493c0-1.926,1.567-3.493,3.493-3.493c1.926,0,3.493,1.567,3.493,3.493
			C348.32,86.695,346.753,88.262,344.827,88.262z"/>
	</g>
</g>
<g>
</g>
<g>
</g>
<g>
</g>
<g>
</g>
<g>
</g>
<g>
</g>
<g>
</g>
<g>
</g>
<g>
</g>
<g>
</g>
<g>
</g>
<g>
</g>
<g>
</g>
<g>
</g>
<g>
</g>
</svg>
