<?xml version="1.0"?>
<svg xmlns="http://www.w3.org/2000/svg" xmlns:xlink="http://www.w3.org/1999/xlink" xmlns:svgjs="http://svgjs.com/svgjs" version="1.1" width="512" height="512" x="0" y="0" viewBox="0 0 512 512" style="enable-background:new 0 0 512 512" xml:space="preserve" class=""><g><g xmlns="http://www.w3.org/2000/svg"><g><g><path d="m436.206 190.112c0-99.473-80.681-180.112-180.206-180.112s-180.206 80.639-180.206 180.112c0 87.895 62.993 161.085 146.318 176.932v41.83h67.775v-41.83c83.325-15.847 146.319-89.037 146.319-176.932z" fill="#ffd803" data-original="#fff7bf" style="" class=""/></g><g><path d="m303.801 455.437h-95.603c-12.858 0-23.282-10.423-23.282-23.282 0-12.858 10.424-23.282 23.282-23.282h95.603c12.858 0 23.282 10.423 23.282 23.282 0 12.858-10.424 23.282-23.282 23.282z" fill="#e3f6f5" data-original="#ccf5fc" style="" class=""/><path d="m292.391 502h-72.782c-12.858 0-23.282-10.423-23.282-23.282 0-12.858 10.424-23.282 23.282-23.282h72.782c12.858 0 23.282 10.424 23.282 23.282 0 12.859-10.424 23.282-23.282 23.282z" fill="#bae8e8" data-original="#99ebfa" style="" class=""/></g><path d="m315.891 180.414h-50.735v-82.372l-69.047 117.567h50.735v82.373z" fill="#fffffe" data-original="#ffee80" style="" class=""/></g><g><g><path d="m444.5 198.18c2.321-3.488 2.194-8.13-.282-11.504-2.504-3.411-7.071-4.845-11.086-3.556-3.977 1.276-6.805 5.005-6.937 9.184-.13 4.116 2.36 7.984 6.165 9.565 4.329 1.8 9.561.249 12.14-3.689z" fill="#272343" data-original="#000000" style="" class=""/><path d="m432.426 228.333c-5.327-1.468-10.829 1.664-12.294 6.989-17.065 62.032-68.923 109.879-132.112 121.896-4.718.897-8.132 5.021-8.132 9.824v31.831h-47.775v-31.831c0-4.802-3.414-8.927-8.132-9.824-80.07-15.228-138.187-85.506-138.187-167.107 0-93.799 76.354-170.111 170.206-170.111 78.759 0 146.764 53.335 165.376 129.702 1.308 5.364 6.711 8.66 12.084 7.347 5.365-1.308 8.655-6.717 7.348-12.083-9.909-40.657-33.508-77.479-66.449-103.683-33.951-27.008-74.879-41.283-118.359-41.283-104.88 0-190.206 85.284-190.206 190.112 0 88.411 61.044 164.928 146.318 185.024v23.737h-3.914c-18.352 0-33.281 14.93-33.281 33.282 0 12.266 6.67 23.003 16.573 28.775-3.269 5.148-5.163 11.251-5.163 17.788 0 18.352 14.93 33.282 33.281 33.282h72.783c18.352 0 33.281-14.93 33.281-33.282 0-6.537-1.895-12.639-5.163-17.788 9.903-5.772 16.574-16.509 16.574-28.775 0-18.352-14.93-33.282-33.281-33.282h-3.914v-23.739c31.804-7.509 61.157-23.141 85.324-45.512 26.086-24.147 44.829-54.921 54.203-88.996 1.465-5.323-1.664-10.828-6.989-12.293zm-140.034 263.667h-72.783c-7.323 0-13.281-5.958-13.281-13.282s5.958-13.282 13.281-13.282h72.783c7.323 0 13.281 5.958 13.281 13.282s-5.958 13.282-13.281 13.282zm24.691-59.845c0 7.323-5.958 13.281-13.281 13.281h-95.604c-7.323 0-13.281-5.958-13.281-13.281 0-7.324 5.958-13.282 13.281-13.282h95.604c7.323.001 13.281 5.959 13.281 13.282z" fill="#272343" data-original="#000000" style="" class=""/><path d="m491.923 182.575h-11.189c-5.522 0-10 4.477-10 10s4.478 10 10 10h11.189c5.522 0 10-4.477 10-10s-4.478-10-10-10z" fill="#272343" data-original="#000000" style="" class=""/><path d="m459.558 274.043c-3.906-3.905-10.238-3.905-14.143 0s-3.905 10.237 0 14.142l7.911 7.911c1.953 1.953 4.512 2.929 7.071 2.929 2.56 0 5.119-.977 7.071-2.929 3.905-3.905 3.905-10.237 0-14.142z" fill="#272343" data-original="#000000" style="" class=""/><path d="m453.326 89.052-7.911 7.911c-3.905 3.905-3.905 10.237 0 14.142 1.953 1.953 4.512 2.929 7.071 2.929s5.118-.977 7.071-2.929l7.911-7.911c3.905-3.905 3.905-10.237 0-14.142-3.904-3.905-10.235-3.905-14.142 0z" fill="#272343" data-original="#000000" style="" class=""/><path d="m31.266 182.575h-11.189c-5.522 0-10 4.477-10 10s4.478 10 10 10h11.188c5.523 0 10-4.477 10-10 .001-5.523-4.477-10-9.999-10z" fill="#272343" data-original="#000000" style="" class=""/><path d="m52.442 111.105c1.953 1.953 4.512 2.929 7.071 2.929 2.56 0 5.119-.977 7.071-2.929 3.905-3.905 3.905-10.237 0-14.142l-7.911-7.911c-3.906-3.905-10.238-3.905-14.143 0s-3.905 10.237 0 14.142z" fill="#272343" data-original="#000000" style="" class=""/><path d="m52.442 274.043-7.911 7.911c-3.905 3.905-3.905 10.237 0 14.142 1.953 1.953 4.512 2.929 7.071 2.929s5.118-.977 7.071-2.929l7.911-7.911c3.905-3.905 3.905-10.237 0-14.142-3.904-3.904-10.234-3.904-14.142 0z" fill="#272343" data-original="#000000" style="" class=""/><path d="m244.22 307.631c.872.237 1.753.352 2.625.352 3.48 0 6.794-1.825 8.622-4.936l69.047-117.567c1.815-3.092 1.837-6.92.056-10.032s-5.093-5.032-8.679-5.032h-40.734v-72.374c0-4.512-3.022-8.465-7.376-9.649-4.353-1.184-8.961.694-11.247 4.585l-69.047 117.567c-1.815 3.092-1.837 6.919-.056 10.032 1.781 3.112 5.093 5.032 8.679 5.032h40.734v72.372c0 4.513 3.021 8.466 7.376 9.65zm-30.641-102.022 41.577-70.794v45.599c0 5.523 4.477 10 10 10h33.265l-41.577 70.793v-45.599c0-5.523-4.478-10-10-10h-33.265z" fill="#272343" data-original="#000000" style="" class=""/></g></g></g></g></svg>
