<?xml version="1.0" encoding="utf-8"?>
<!-- Generator: Adobe Illustrator 23.1.0, SVG Export Plug-In . SVG Version: 6.00 Build 0)  -->
<svg version="1.1" id="Layer_1" xmlns="http://www.w3.org/2000/svg" xmlns:xlink="http://www.w3.org/1999/xlink" x="0px" y="0px"
	 viewBox="0 0 163.1 62.5" style="enable-background:new 0 0 163.1 62.5;" xml:space="preserve">
<style type="text/css">
	.st0{display:none;}
	.st1{display:inline;}
	.st2{fill:#FFFFFE;}
</style>
<g class="st0">
	<path class="st1" d="M56.6,52.2l-0.3,0.7c-1.3,0.8-2.9,1.3-4.9,1.3c-5,0-7.8-2.8-7.8-8.3v-9.4c0-3.5-1.8-5.7-5.2-5.7
		c-3.3,0-5.4,2.3-5.4,5.7v16.9h-9.2V36.4c0-3.5-1.8-5.7-5.2-5.7c-3.3,0-5.4,2.3-5.4,5.7v16.9H3.9V33.2c0-1.4-0.4-2.2-1.3-2.2
		c-0.4,0-0.7,0.1-0.9,0.3L1.1,31L0,24.8l0.4-0.6c1.3-0.8,2.8-1.3,4.6-1.3c2.7,0,5,1.1,6.2,3.3c2.4-2,5.6-3.3,9.4-3.3
		c4,0,7.3,1.5,9.5,4.2c2.5-2.5,6.1-4.2,10.3-4.2c7.4,0,12.4,5,12.4,12.8v8.1c0,1.4,0.4,2.2,1.3,2.2c0.4,0,0.7-0.1,0.9-0.3l0.6,0.3
		L56.6,52.2z"/>
	<path class="st1" d="M83,38.5c0-4.8-3.2-7.7-7.2-7.7c-4.4,0-7.3,3.3-7.3,7.7s2.9,7.7,7.3,7.7C79.8,46.2,83,43.3,83,38.5 M95.4,52.2
		l-0.3,0.7c-1.3,0.8-2.9,1.3-4.6,1.3c-2.9,0-5.3-1.4-6.4-4c-2.6,2.4-6,4-10.1,4c-8.6,0-14.8-6.8-14.8-15.6s6.2-15.6,14.8-15.6
		c4,0,7.5,1.5,10.1,3.9v-3.2h7.6v20.2c0,1.4,0.4,2.2,1.3,2.2c0.4,0,0.7-0.2,0.9-0.3l0.6,0.3L95.4,52.2z"/>
	<path class="st1" d="M129.6,23.6v24.1c0,9.9-7.3,14.8-16.6,14.8c-6.2,0-10.9-2.3-14-5.7v-0.6l3.8-4.8h0.7c2.1,2.4,5.7,4.3,9.6,4.3
		c4,0,7.7-2.1,7.7-6.5v-1.5c-1.8,1.8-4.2,3-7.7,3c-6,0-12.3-3.5-12.3-11.8v-5.8c0-1.4-0.4-2.2-1.3-2.2c-0.4,0-0.7,0.1-0.9,0.3
		l-0.6-0.3L97,24.8l0.3-0.6c1.3-0.8,2.9-1.3,4.9-1.3c4.9,0,7.7,2.7,7.7,8.2v6.6c0,3.2,1.9,5.4,5.2,5.4c3.4,0,5.5-2.4,5.5-5.8V23.6
		H129.6z"/>
	<path class="st1" d="M93.2,17L78.4,8.2c-1.3-0.8-3.1-0.8-4.4,0L59.2,17l-3.9-6.6l14.8-8.8c3.7-2.2,8.5-2.2,12.2,0l14.8,8.8L93.2,17
		z"/>
	<path class="st1" d="M159.1,45.5L159.1,45.5c-0.1-0.1,0-0.1,0-0.2c0-3.7-3.2-6.8-7.1-6.8c-3.5,0-6.4,2.4-7,5.6
		c-0.5-0.1-0.9-0.2-1.4-0.2c-2.8,0-5,2.1-5,4.8c0,2.6,2.1,4.7,4.8,4.8c0.3,0.1,0.6,0.1,0.9,0.1h14.8c2.2,0,4.1-1.8,4.1-4
		S161.3,45.5,159.1,45.5"/>
</g>
<g>
	<path class="st2" d="M56.6,52.2l-0.3,0.7c-1.3,0.8-2.9,1.3-4.9,1.3c-5,0-7.8-2.8-7.8-8.3v-9.4c0-3.5-1.8-5.7-5.2-5.7
		c-3.3,0-5.4,2.3-5.4,5.7v16.9h-9.2V36.4c0-3.5-1.8-5.7-5.2-5.7c-3.3,0-5.4,2.3-5.4,5.7v16.9H3.9V33.2c0-1.4-0.4-2.2-1.3-2.2
		c-0.4,0-0.7,0.1-0.9,0.3L1.1,31L0,24.8l0.4-0.6c1.3-0.8,2.8-1.3,4.6-1.3c2.7,0,5,1.1,6.2,3.3c2.4-2,5.6-3.3,9.4-3.3
		c4,0,7.3,1.5,9.5,4.2c2.5-2.5,6.1-4.2,10.3-4.2c7.4,0,12.4,5,12.4,12.8v8.1c0,1.4,0.4,2.2,1.3,2.2c0.4,0,0.7-0.1,0.9-0.3l0.6,0.3
		L56.6,52.2z"/>
	<path class="st2" d="M83,38.5c0-4.8-3.2-7.7-7.2-7.7c-4.4,0-7.3,3.3-7.3,7.7s2.9,7.7,7.3,7.7C79.8,46.2,83,43.3,83,38.5 M95.4,52.2
		l-0.3,0.7c-1.3,0.8-2.9,1.3-4.6,1.3c-2.9,0-5.3-1.4-6.4-4c-2.6,2.4-6,4-10.1,4c-8.6,0-14.8-6.8-14.8-15.6s6.2-15.6,14.8-15.6
		c4,0,7.5,1.5,10.1,3.9v-3.2h7.6v20.2c0,1.4,0.4,2.2,1.3,2.2c0.4,0,0.7-0.2,0.9-0.3l0.6,0.3L95.4,52.2z"/>
	<path class="st2" d="M129.6,23.6v24.1c0,9.9-7.3,14.8-16.6,14.8c-6.2,0-10.9-2.3-14-5.7v-0.6l3.8-4.8h0.7c2.1,2.4,5.7,4.3,9.6,4.3
		c4,0,7.7-2.1,7.7-6.5v-1.5c-1.8,1.8-4.2,3-7.7,3c-6,0-12.3-3.5-12.3-11.8v-5.8c0-1.4-0.4-2.2-1.3-2.2c-0.4,0-0.7,0.1-0.9,0.3
		l-0.6-0.3L97,24.8l0.3-0.6c1.3-0.8,2.9-1.3,4.9-1.3c4.9,0,7.7,2.7,7.7,8.2v6.6c0,3.2,1.9,5.4,5.2,5.4c3.4,0,5.5-2.4,5.5-5.8V23.6
		H129.6z"/>
	<path class="st2" d="M93.2,17L78.4,8.2c-1.3-0.8-3.1-0.8-4.4,0L59.2,17l-3.9-6.6l14.8-8.8c3.7-2.2,8.5-2.2,12.2,0l14.8,8.8L93.2,17
		z"/>
	<path class="st2" d="M159.1,45.5L159.1,45.5c-0.1-0.1,0-0.1,0-0.2c0-3.7-3.2-6.8-7.1-6.8c-3.5,0-6.4,2.4-7,5.6
		c-0.5-0.1-0.9-0.2-1.4-0.2c-2.8,0-5,2.1-5,4.8c0,2.6,2.1,4.7,4.8,4.8c0.3,0.1,0.6,0.1,0.9,0.1h14.8c2.2,0,4.1-1.8,4.1-4
		S161.3,45.5,159.1,45.5"/>
</g>
</svg>
