<?xml version="1.0" encoding="iso-8859-1"?>
<!-- Generator: Adobe Illustrator 19.0.0, SVG Export Plug-In . SVG Version: 6.00 Build 0)  -->
<svg version="1.1" id="Capa_1" xmlns="http://www.w3.org/2000/svg" xmlns:xlink="http://www.w3.org/1999/xlink" x="0px" y="0px"
	 viewBox="0 0 480.026 480.026" style="enable-background:new 0 0 480.026 480.026;" xml:space="preserve">
<g>
	<g>
		<path d="M16.013,344.013h-16c0,35.664,36.336,72,72,72v-16C45.317,400.013,16.013,370.709,16.013,344.013z"/>
	</g>
</g>
<g>
	<g>
		<path class="path" fill="#bae8e8" d="M460.389,211.222c-5.517-7.841-12.726-14.34-21.096-19.017c17.838-30.407,7.648-69.518-22.759-87.356
			c-7.661-4.495-16.177-7.341-25.001-8.356c-3.84-32.183-31.109-56.429-63.52-56.48c-0.24,0-0.472,0.048-0.712,0.048
			c-4.353-26.114-29.052-43.754-55.166-39.401c-13.143,2.191-24.781,9.754-32.122,20.873C225.42-0.556,195.684-6.633,173.594,7.96
			c-11.229,7.419-18.823,19.216-20.925,32.51c-29.256,3.427-52.405,26.361-56.104,55.584c-0.184,0-0.368-0.04-0.552-0.04
			c-35.346-0.008-64.007,28.639-64.015,63.985c-0.002,6.723,1.056,13.405,3.135,19.799c-16.989,11.964-27.103,31.438-27.12,52.216
			c0.066,23.155,12.576,44.487,32.752,55.848c-17.819,30.418-7.606,69.523,22.813,87.342c7.638,4.474,16.122,7.311,24.915,8.33
			c3.84,32.183,31.109,56.429,63.52,56.48c0.24,0,0.472-0.048,0.712-0.048c4.353,26.114,29.052,43.755,55.166,39.401
			c13.143-2.191,24.781-9.754,32.122-20.873c14.593,22.089,44.33,28.166,66.419,13.574c11.229-7.419,18.823-19.216,20.925-32.51
			c29.243-3.423,52.388-26.337,56.104-55.544c0.184,0,0.368,0.04,0.552,0.04c35.346,0.008,64.007-28.639,64.015-63.985
			c0.002-6.723-1.056-13.405-3.135-19.799C473.762,279.959,480.7,240.091,460.389,211.222z M408.013,296.013v16
			c7.655-0.013,15.244-1.412,22.4-4.128c6.791,25.529-8.399,51.73-33.928,58.521c-4.068,1.082-8.262,1.623-12.472,1.607
			c-0.168,0-0.336,0-0.512,0c-2.359-19.243-13.362-36.36-29.888-46.496l-8.408,13.6c22.56,13.921,29.564,43.495,15.643,66.055
			c-7.401,11.995-19.701,20.13-33.635,22.249c-1.909-10.49-7.257-20.046-15.2-27.16l-10.672,11.92
			c13.175,11.779,14.307,32.009,2.528,45.184c-11.779,13.175-32.009,14.307-45.184,2.528c-6.797-6.076-10.679-14.763-10.672-23.88
			v-16h-16v16c0,17.673-14.327,32-32,32s-32-14.327-32-32c0-10.072,4.742-19.557,12.8-25.6l-9.6-12.8
			c-9.836,7.353-16.447,18.227-18.448,30.344c-0.248,0-0.496,0.056-0.744,0.056c-23.641-0.027-43.743-17.263-47.376-40.624
			c3.266-0.426,6.494-1.102,9.656-2.024l-4.56-15.344c-25.41,7.558-52.135-6.914-59.692-32.324s6.914-52.135,32.324-59.692
			c4.427-1.317,9.022-1.988,13.641-1.992c7.115-0.019,14.143,1.559,20.568,4.616l6.864-14.448
			c-24.494-11.617-53.652-6.526-72.76,12.704c-23.722-11.735-33.439-40.478-21.705-64.199c8.093-16.361,24.779-26.703,43.033-26.673
			v-16c-7.655,0.013-15.244,1.412-22.4,4.128c-6.791-25.529,8.399-51.73,33.928-58.521c4.068-1.082,8.262-1.623,12.472-1.607
			c0.168,0,0.336,0,0.512,0c2.358,19.243,13.362,36.36,29.888,46.496l8.408-13.6c-22.56-13.921-29.564-43.495-15.643-66.055
			c7.401-11.995,19.701-20.13,33.635-22.249c1.909,10.49,7.257,20.046,15.2,27.16l10.672-11.92
			c-13.175-11.779-14.307-32.009-2.528-45.184c11.779-13.175,32.009-14.307,45.184-2.528c6.797,6.076,10.679,14.763,10.672,23.88v16
			h16v-16c0-17.673,14.327-32,32-32c17.673,0,32,14.327,32,32c0,10.072-4.742,19.557-12.8,25.6l9.6,12.8
			c9.836-7.353,16.447-18.227,18.448-30.344c0.248,0,0.496-0.056,0.744-0.056c23.641,0.027,43.743,17.263,47.376,40.624
			c-3.266,0.426-6.494,1.102-9.656,2.024l4.56,15.344c25.409-7.558,52.135,6.914,59.692,32.324s-6.914,52.135-32.324,59.692
			c-4.427,1.317-9.022,1.988-13.641,1.992c-7.115,0.019-14.143-1.559-20.568-4.616l-6.864,14.448
			c24.494,11.617,53.652,6.526,72.76-12.704c23.722,11.735,33.439,40.478,21.705,64.199
			C442.953,285.702,426.267,296.044,408.013,296.013z"/>
	</g>
</g>
<g>
	<g>
		<path fill="#ffd803" d="M216.013,132.117c-28.751,10.201-47.972,37.389-48,67.896h16c0.034-23.72,14.977-44.857,37.328-52.8L216.013,132.117z"/>
	</g>
</g>
<g>
	<g>
		<path fill="#ffd803" d="M232.013,128.453l1.752,15.904c4.147-0.457,8.333-0.457,12.48,0l1.768-15.904
			C242.696,127.867,237.33,127.867,232.013,128.453z"/>
	</g>
</g>
<g>
	<g>
		<path fill="#ffd803" d="M327.649,143.922c-30.928-48.4-95.236-62.564-143.636-31.636c-48.4,30.928-62.564,95.236-31.636,143.636
			c8.125,12.715,18.92,23.51,31.636,31.636v17.928c-12.409,4.293-18.989,17.833-14.696,30.243c1.062,3.07,2.742,5.89,4.936,8.285
			c-8.894,9.75-8.2,24.864,1.55,33.758c4.429,4.04,10.215,6.268,16.21,6.242h96c13.197,0.058,23.943-10.593,24.002-23.79
			c0.027-5.995-2.201-11.781-6.242-16.21c8.869-9.683,8.209-24.723-1.475-33.592c-2.396-2.194-5.215-3.874-8.285-4.936v-17.928
			C344.413,256.629,358.577,192.321,327.649,143.922z M288.013,368.013h-96c-4.418,0-8-3.582-8-8s3.582-8,8-8h96
			c4.418,0,8,3.582,8,8S292.432,368.013,288.013,368.013z M288.013,336.013h-96c-4.418,0-8-3.582-8-8s3.582-8,8-8h96
			c4.418,0,8,3.582,8,8S292.432,336.013,288.013,336.013z M284.013,276.149c-2.473,1.428-3.997,4.065-4,6.92v20.944h-32v-44.688
			l29.656-29.656l-11.312-11.312l-26.344,26.344l-26.344-26.344l-11.312,11.312l29.656,29.656v44.688h-32v-20.944
			c-0.003-2.855-1.527-5.492-4-6.92c-42.075-24.273-56.507-78.058-32.235-120.133c15.716-27.243,44.783-44.021,76.235-44.003
			c48.575-0.028,87.975,39.327,88.003,87.901C328.034,231.366,311.256,260.433,284.013,276.149z"/>
	</g>
</g>
<g>
	<g>
		<rect x="0.013" y="312.013" width="16" height="16"/>
	</g>
</g>
<g>
	<g>
		<path d="M408.013,64.013v16c26.696,0,56,29.304,56,56h16C480.013,100.349,443.677,64.013,408.013,64.013z"/>
	</g>
</g>
<g>
	<g>
		<rect x="464.013" y="152.013" width="16" height="16"/>
	</g>
</g>
<g>
</g>
<g>
</g>
<g>
</g>
<g>
</g>
<g>
</g>
<g>
</g>
<g>
</g>
<g>
</g>
<g>
</g>
<g>
</g>
<g>
</g>
<g>
</g>
<g>
</g>
<g>
</g>
<g>
</g>
</svg>
