<?xml version="1.0"?>
<svg xmlns="http://www.w3.org/2000/svg" xmlns:xlink="http://www.w3.org/1999/xlink" xmlns:svgjs="http://svgjs.com/svgjs" version="1.1" width="512" height="512" x="0" y="0" viewBox="0 0 512 512" style="enable-background:new 0 0 512 512" xml:space="preserve" class=""><g><g xmlns="http://www.w3.org/2000/svg"><g><path d="m462.126 270.12c10.51 10.51 6.28 28.41-7.82 33.11l-30.3 9.77 10.72 24.44c5.07 10.14.71 22.46-9.61 27.15l-8.61 3.91c1.59 1.59 3.36 3.36 3.36 3.36 7.81 7.81 7.81 20.47 0 28.28l-5.86 5.86c0 22.09-17.91 40-40 40h-40c-27.61 0-50 28.39-50 56h-160c20-140-80-172-80-312 0-99.41 80.59-180 180-180s180 80.59 180 180c0 12.81 5.09 28.09 14.14 37.14z" fill="#fce8d0" data-original="#fce8d0" style="" class=""/><path d="m253.696 213.4h-59.38c-.21 2.17-.31 4.37-.31 6.6 0 23.79 11.86 44.8 30 57.44 18.14-12.64 30-33.65 30-57.44 0-2.23-.1-4.43-.31-6.6z" fill="#9bc5ff" data-original="#9bc5ff" style="" class=""/><path d="m264.006 150c-14.87 0-28.66 4.64-40 12.56l29.69 50.84c21.93-10.27 37.65-31.6 40-56.8-9.01-4.24-19.08-6.6-29.69-6.6z" fill="#a7e8a6" data-original="#ff9256" style="" class=""/><path d="m224.006 80c-38.66 0-70 31.34-70 70 0 2.23.1 4.43.31 6.6l69.69 5.96 69.69-5.96c.21-2.17.31-4.37.31-6.6 0-38.66-31.34-70-70-70z" fill="#ffd803" data-original="#ffda8f" style="" class=""/><path d="m293.696 156.6-40 56.8-29.69 64.04c11.34 7.92 25.13 12.56 40 12.56 38.66 0 70-31.34 70-70 0-28.05-16.49-52.24-40.31-63.4z" fill="#bae8e8" data-original="#ff7b79" style="" class=""/><path d="m194.316 213.4-40-56.8c-23.82 11.16-40.31 35.35-40.31 63.4 0 38.66 31.34 70 70 70 14.87 0 28.66-4.64 40-12.56z" fill="#e3f6f5" data-original="#a0c8ff" style="" class=""/><path d="m224.006 162.56c16.44 11.46 27.73 29.8 29.69 50.84-9.01 4.24-19.08 6.6-29.69 6.6s-20.68-2.36-29.69-6.6c1.96-21.04 13.25-39.38 29.69-50.84z" fill="#eefaff" data-original="#eefaff" style="" class=""/><path d="m184.006 150c-10.61 0-20.68 2.36-29.69 6.6 2.35 25.2 18.07 46.53 40 56.8l29.69-50.84c-11.34-7.92-25.13-12.56-40-12.56z" fill="#a7e8a6" data-original="#a7e8a6" style="" class=""/></g><g><path d="m104.006 220c0 44.112 35.888 80 80 80 14.184 0 27.881-3.695 40-10.722 12.123 7.028 25.818 10.722 40 10.722 44.112 0 80-35.888 80-80 0-28.613-15.508-55.104-40.017-69.282.002-.241.017-.476.017-.718 0-44.112-35.888-80-80-80s-80 35.888-80 80c0 .241.015.477.017.718-24.509 14.179-40.017 40.67-40.017 69.282zm156.763-22.596c-3.64-12.406-10.249-23.735-19.27-33.037 7.089-2.875 14.699-4.367 22.507-4.367 6.41 0 12.632 1 18.587 2.947-3.025 13.678-10.814 25.895-21.824 34.457zm-18.179 9.65c-5.954 1.946-12.175 2.946-18.584 2.946-6.406 0-12.626-.999-18.584-2.946 2.692-12.26 9.18-23.348 18.584-31.751 9.403 8.4 15.892 19.49 18.584 31.751zm-55.351-9.65c-11.006-8.559-18.795-20.778-21.82-34.458 5.955-1.946 12.177-2.946 18.587-2.946 7.808 0 15.417 1.492 22.507 4.368-9.026 9.306-15.636 20.637-19.274 33.036zm36.767 32.596c6.665 0 13.186-.801 19.505-2.387-1.831 14.287-8.756 27.476-19.506 37.099-10.748-9.62-17.673-22.811-19.505-37.1 6.322 1.587 12.842 2.388 19.506 2.388zm100-10c0 33.084-26.916 60-60 60-7.814 0-15.429-1.495-22.525-4.375 14.299-14.782 22.525-34.686 22.525-55.625 0-.24-.015-.475-.017-.715 17.827-10.306 30.99-27.162 36.762-46.699 14.427 11.229 23.255 28.718 23.255 47.414zm-100-130c30.503 0 55.745 22.886 59.5 52.386-6.319-1.586-12.838-2.386-19.5-2.386-14.183 0-27.88 3.695-40 10.722-12.124-7.028-25.818-10.722-40-10.722-6.663 0-13.182.8-19.5 2.386 3.755-29.5 28.997-52.386 59.5-52.386zm-76.742 82.586c5.777 19.55 18.94 36.403 36.758 46.701-.002.239-.017.474-.017.713 0 20.941 8.227 40.846 22.525 55.625-7.094 2.879-14.71 4.375-22.525 4.375-33.084 0-60-26.916-60-60 .001-18.694 8.827-36.182 23.259-47.414z" fill="#272343" data-original="#000000" style="" class=""/><circle cx="97.006" cy="63" r="10" fill="#272343" data-original="#000000" style="" class=""/><path d="m74.2 89.677c-4.75-2.82-10.885-1.254-13.703 3.497-17.331 29.206-26.491 62.688-26.491 96.826 0 68.278 22.667 111.31 44.587 152.925 23.478 44.573 45.655 86.674 35.514 157.661-.41 2.869.445 5.776 2.345 7.966 1.899 2.19 4.656 3.448 7.555 3.448h160c5.523 0 10-4.478 10-10 0-21.272 17.473-46 40-46h40c26.113 0 47.614-20.12 49.814-45.673l3.116-3.116c5.667-5.666 8.787-13.198 8.787-21.211 0-4.927-1.179-9.671-3.405-13.912 5.958-3.567 10.443-9.035 12.799-15.688 2.714-7.666 2.243-15.887-1.325-23.183l-6.183-14.097 19.858-6.403c9.935-3.312 17.303-11.375 19.709-21.568 2.406-10.191-.578-20.696-7.98-28.1-.027-.026-44.015-43.015-44.015-43.015-6.583-6.609-11.177-18.95-11.177-30.034 0-104.767-85.233-190-190-190-34.139 0-67.621 9.16-96.826 26.491-4.75 2.818-6.315 8.953-3.497 13.703 2.818 4.749 8.954 6.315 13.703 3.496 26.119-15.498 56.072-23.69 86.621-23.69 93.738 0 170 76.262 170 170 0 16.488 6.7 33.842 17.069 44.211.027.027 44.015 43.016 44.015 43.016 3.516 3.547 3.007 7.701 2.623 9.327-.385 1.632-1.797 5.599-6.476 7.159l-30.3 9.77c-2.692.868-4.89 2.835-6.051 5.415-1.161 2.579-1.174 5.529-.038 8.119 7.918 18.044 10.758 24.545 10.934 24.896 1.227 2.453 1.398 5.228.483 7.812-.914 2.582-2.792 4.629-5.284 5.761l-8.61 3.91c-2.986 1.356-5.118 4.092-5.704 7.319s.449 6.537 2.768 8.857l3.36 3.36c1.888 1.889 2.928 4.398 2.928 7.068s-1.04 5.18-2.929 7.069l-5.86 5.859c-1.875 1.876-2.929 4.419-2.929 7.071 0 16.542-13.458 30-30 30h-40c-30.126 0-54.537 26.784-59.196 56h-139.506c7.183-70.696-16.284-115.242-39.015-158.396-20.788-39.462-42.282-80.27-42.282-143.603 0-30.548 8.192-60.501 23.691-86.621 2.818-4.749 1.252-10.884-3.497-13.702z" fill="#272343" data-original="#000000" style="" class=""/></g></g></g></svg>
