<?xml version="1.0" encoding="utf-8"?>
<!-- Generator: Adobe Illustrator 23.1.0, SVG Export Plug-In . SVG Version: 6.00 Build 0)  -->
<svg version="1.1" id="Layer_1" xmlns="http://www.w3.org/2000/svg" xmlns:xlink="http://www.w3.org/1999/xlink" x="0px" y="0px"
	 viewBox="0 0 163.14 62.53" style="enable-background:new 0 0 163.14 62.53;" xml:space="preserve">
<g>
	<path d="M56.6,52.18l-0.3,0.65c-1.31,0.77-2.91,1.25-4.94,1.25c-5.05,0-7.85-2.79-7.85-8.26v-9.39c0-3.45-1.84-5.71-5.17-5.71
		c-3.27,0-5.41,2.26-5.41,5.71v16.94h-9.21V36.43c0-3.45-1.84-5.71-5.17-5.71c-3.27,0-5.41,2.26-5.41,5.71v16.94H3.92V33.16
		c0-1.37-0.36-2.2-1.31-2.2c-0.42,0-0.71,0.12-0.89,0.3l-0.59-0.3L0,24.83l0.36-0.65c1.31-0.77,2.85-1.25,4.58-1.25
		c2.74,0,4.99,1.13,6.24,3.33c2.44-2.02,5.65-3.33,9.39-3.33c4.04,0,7.31,1.49,9.51,4.16c2.5-2.5,6.06-4.16,10.28-4.16
		c7.37,0,12.37,5.05,12.37,12.84v8.09c0,1.37,0.36,2.2,1.31,2.2c0.42,0,0.71-0.12,0.89-0.3l0.59,0.3L56.6,52.18z"/>
	<path d="M82.99,38.51c0-4.81-3.15-7.73-7.19-7.73c-4.4,0-7.31,3.33-7.31,7.73c0,4.4,2.91,7.73,7.25,7.73
		C79.84,46.24,82.99,43.32,82.99,38.51 M95.42,52.18l-0.3,0.65c-1.31,0.77-2.91,1.25-4.64,1.25c-2.91,0-5.29-1.37-6.42-3.98
		c-2.56,2.44-6,3.98-10.11,3.98c-8.56,0-14.8-6.84-14.8-15.58c0-8.74,6.24-15.58,14.8-15.58c4.04,0,7.49,1.55,10.05,3.92v-3.21h7.55
		v20.21c0,1.43,0.42,2.2,1.31,2.2c0.42,0,0.71-0.18,0.89-0.3l0.59,0.3L95.42,52.18z"/>
	<path d="M129.6,23.64v24.08c0,9.93-7.31,14.8-16.59,14.8c-6.24,0-10.94-2.26-13.97-5.65v-0.59l3.8-4.76h0.65
		c2.08,2.38,5.71,4.28,9.63,4.28c4.04,0,7.73-2.08,7.73-6.48v-1.55c-1.78,1.84-4.22,3.03-7.67,3.03c-6,0-12.31-3.51-12.31-11.83
		v-5.83c0-1.37-0.36-2.2-1.31-2.2c-0.42,0-0.71,0.12-0.89,0.3l-0.6-0.3l-1.07-6.12l0.3-0.65c1.31-0.77,2.91-1.25,4.87-1.25
		c4.94,0,7.67,2.74,7.67,8.2v6.6c0,3.21,1.9,5.41,5.23,5.41c3.39,0,5.53-2.44,5.53-5.77V23.64H129.6z"/>
	<path d="M93.16,16.98L78.39,8.22c-1.3-0.77-3.12-0.77-4.42,0l-14.78,8.76l-3.9-6.58l14.78-8.76c3.71-2.2,8.5-2.19,12.21,0
		l14.78,8.75L93.16,16.98z"/>
	<path d="M159.09,45.54h-0.05c0-0.06,0.02-0.11,0.02-0.17c0-3.74-3.17-6.78-7.09-6.78c-3.5,0-6.39,2.43-6.97,5.62
		c-0.46-0.13-0.94-0.23-1.45-0.23c-2.76,0-5,2.14-5,4.78c0,2.59,2.15,4.68,4.83,4.77c0.29,0.07,0.59,0.11,0.89,0.11h14.81
		c2.24,0,4.05-1.81,4.05-4.05S161.32,45.54,159.09,45.54"/>
</g>
<g>
	<path d="M56.6,52.18l-0.3,0.65c-1.31,0.77-2.91,1.25-4.94,1.25c-5.05,0-7.85-2.79-7.85-8.26v-9.39c0-3.45-1.84-5.71-5.17-5.71
		c-3.27,0-5.41,2.26-5.41,5.71v16.94h-9.21V36.43c0-3.45-1.84-5.71-5.17-5.71c-3.27,0-5.41,2.26-5.41,5.71v16.94H3.92V33.16
		c0-1.37-0.36-2.2-1.31-2.2c-0.42,0-0.71,0.12-0.89,0.3l-0.59-0.3L0,24.83l0.36-0.65c1.31-0.77,2.85-1.25,4.58-1.25
		c2.74,0,4.99,1.13,6.24,3.33c2.44-2.02,5.65-3.33,9.39-3.33c4.04,0,7.31,1.49,9.51,4.16c2.5-2.5,6.06-4.16,10.28-4.16
		c7.37,0,12.37,5.05,12.37,12.84v8.09c0,1.37,0.36,2.2,1.31,2.2c0.42,0,0.71-0.12,0.89-0.3l0.59,0.3L56.6,52.18z"/>
	<path d="M82.99,38.51c0-4.81-3.15-7.73-7.19-7.73c-4.4,0-7.31,3.33-7.31,7.73c0,4.4,2.91,7.73,7.25,7.73
		C79.84,46.24,82.99,43.32,82.99,38.51 M95.42,52.18l-0.3,0.65c-1.31,0.77-2.91,1.25-4.64,1.25c-2.91,0-5.29-1.37-6.42-3.98
		c-2.56,2.44-6,3.98-10.11,3.98c-8.56,0-14.8-6.84-14.8-15.58c0-8.74,6.24-15.58,14.8-15.58c4.04,0,7.49,1.55,10.05,3.92v-3.21h7.55
		v20.21c0,1.43,0.42,2.2,1.31,2.2c0.42,0,0.71-0.18,0.89-0.3l0.59,0.3L95.42,52.18z"/>
	<path d="M129.6,23.64v24.08c0,9.93-7.31,14.8-16.59,14.8c-6.24,0-10.94-2.26-13.97-5.65v-0.59l3.8-4.76h0.65
		c2.08,2.38,5.71,4.28,9.63,4.28c4.04,0,7.73-2.08,7.73-6.48v-1.55c-1.78,1.84-4.22,3.03-7.67,3.03c-6,0-12.31-3.51-12.31-11.83
		v-5.83c0-1.37-0.36-2.2-1.31-2.2c-0.42,0-0.71,0.12-0.89,0.3l-0.6-0.3l-1.07-6.12l0.3-0.65c1.31-0.77,2.91-1.25,4.87-1.25
		c4.94,0,7.67,2.74,7.67,8.2v6.6c0,3.21,1.9,5.41,5.23,5.41c3.39,0,5.53-2.44,5.53-5.77V23.64H129.6z"/>
	<path d="M93.16,16.98L78.39,8.22c-1.3-0.77-3.12-0.77-4.42,0l-14.78,8.76l-3.9-6.58l14.78-8.76c3.71-2.2,8.5-2.19,12.21,0
		l14.78,8.75L93.16,16.98z"/>
	<path d="M159.09,45.54h-0.05c0-0.06,0.02-0.11,0.02-0.17c0-3.74-3.17-6.78-7.09-6.78c-3.5,0-6.39,2.43-6.97,5.62
		c-0.46-0.13-0.94-0.23-1.45-0.23c-2.76,0-5,2.14-5,4.78c0,2.59,2.15,4.68,4.83,4.77c0.29,0.07,0.59,0.11,0.89,0.11h14.81
		c2.24,0,4.05-1.81,4.05-4.05S161.32,45.54,159.09,45.54"/>
</g>
</svg>
