<?xml version="1.0"?>
<svg xmlns="http://www.w3.org/2000/svg" xmlns:xlink="http://www.w3.org/1999/xlink" xmlns:svgjs="http://svgjs.com/svgjs" version="1.1" width="512" height="512" x="0" y="0" viewBox="0 0 512 512" style="enable-background:new 0 0 512 512" xml:space="preserve" class=""><g><g xmlns="http://www.w3.org/2000/svg"><g><g><g><g><g><path d="m415.611 203.833h-51.632c-2.862 0-5.182 2.32-5.182 5.182v45.159c0 13.329 10.805 24.133 24.133 24.133h13.728c13.328 0 24.133-10.805 24.133-24.133v-45.159c.002-2.863-2.318-5.182-5.18-5.182z" fill="#fffffe" data-original="#f7f4f7" style="" class=""/><g><g><path d="m255.663 131.533h-152.837c-9.304 0-16.847 7.543-16.847 16.847v104.452h186.531v-104.452c0-9.304-7.542-16.847-16.847-16.847z" fill="#fffffe" data-original="#f7f4f7" style="" class=""/><path d="m112.977 245.726v-81.513c0-3.139 2.544-5.683 5.683-5.683h121.17c3.139 0 5.683 2.544 5.683 5.683v81.513z" fill="#ffd803" data-original="#dbe8f9" style="" class=""/><path d="m239.83 158.53h-63.259c3.138 0 5.683 2.544 5.683 5.683v81.513h63.259v-81.513c0-3.138-2.545-5.683-5.683-5.683z" fill="#ffd803" data-original="#c9e0fd" style="" class=""/><path d="m234.569 262.999v-17.273h-164.286c-3.565 0-6.455 2.89-6.455 6.455 0 14.429 11.697 26.125 26.125 26.125h129.308c8.454.001 15.308-6.853 15.308-15.307z" fill="#e3f6f5" data-original="#d1ccd3" style="" class=""/><path d="m288.206 245.726h-56.804v17.273c0 8.454-6.853 15.308-15.308 15.308h52.442c14.429 0 26.125-11.697 26.125-26.125 0-3.566-2.89-6.456-6.455-6.456z" fill="#bae8e8" data-original="#c1bcc4" style="" class=""/></g><g><g><g><g><path d="m419.013 495.733v-94.745h-74.145l-12.028 7.029v87.716c0 4.842 3.925 8.767 8.767 8.767h68.64c4.841 0 8.766-3.925 8.766-8.767z" fill="#fffffe" data-original="#f7f4f7" style="" class=""/><g fill="#edeaed"><path d="m414.629 289.71v206.023c0 4.842-3.925 8.767-8.767 8.767h63.259c4.842 0 8.767-3.925 8.767-8.767v-206.023z" fill="#fffffe" data-original="#edeaed" style="" class=""/><path d="m56.325 504.5h-15.811c-4.144 0-7.503-3.359-7.503-7.503v-207.287h30.816v207.288c.001 4.143-3.358 7.502-7.502 7.502z" fill="#fffffe" data-original="#edeaed" style="" class=""/></g></g><path d="m442.391 303.392v-23.227l-1.736-3.562h-424.798c-4.497 0-8.143 3.646-8.143 8.143v18.646c0 4.497 3.646 8.143 8.143 8.143h418.39c4.498 0 8.144-3.646 8.144-8.143z" fill="#fffffe" data-original="#f7f4f7" style="" class=""/><path d="m495.756 276.602h-55.102v26.789c0 4.497-3.646 8.143-8.143 8.143h63.245c4.497 0 8.143-3.646 8.143-8.143v-18.646c0-4.497-3.646-8.143-8.143-8.143z" fill="#fffffe" data-original="#edeaed" style="" class=""/></g></g></g></g></g><path d="m332.839 311.535h86.173v96.483h-86.173z" fill="#e3f6f5" data-original="#d1ccd3" style="" class=""/><path d="m414.629 311.535h63.259v96.483h-63.259z" fill="#bae8e8" data-original="#c1bcc4" style="" class=""/></g></g><g><path d="m443.098 73.881c0-24.945-13.512-46.734-33.617-58.447-.913-.532-2.048-.551-2.978-.051-20.823 11.202-34.979 33.197-34.979 58.498s14.156 47.297 34.979 58.498c.93.5 2.066.481 2.978-.051 20.105-11.713 33.617-33.502 33.617-58.447z" fill="#fffffe" data-original="#f7f4f7" style="" class=""/><path d="m437.905 7.5c-11.452 0-22.227 2.9-31.63 8.006 20.699 11.239 34.751 33.166 34.751 58.375s-14.052 47.136-34.751 58.375c9.403 5.106 20.178 8.006 31.63 8.006 36.661 0 66.381-29.72 66.381-66.381s-29.72-66.381-66.381-66.381z" fill="#fffffe" data-original="#edeaed" style="" class=""/></g></g></g><g><g><path d="m392.126 352.277c-4.142 0-7.499 3.357-7.499 7.499s3.357 7.499 7.499 7.499h26.477c4.142 0 7.499-3.357 7.499-7.499s-3.357-7.499-7.499-7.499z" fill="#272343" data-original="#000000" style="" class=""/><path d="m392.126 464.375h26.477c4.142 0 7.499-3.357 7.499-7.499s-3.357-7.499-7.499-7.499h-26.477c-4.142 0-7.499 3.357-7.499 7.499s3.357 7.499 7.499 7.499z" fill="#272343" data-original="#000000" style="" class=""/><path d="m433.21 79.728 17.321 13.905c3.225 2.588 7.945 2.082 10.543-1.153 2.593-3.23 2.076-7.951-1.153-10.543l-14.516-11.653v-23.676c0-4.142-3.357-7.499-7.499-7.499s-7.499 3.357-7.499 7.499v27.272c-.001 2.273 1.03 4.424 2.803 5.848z" fill="#272343" data-original="#000000" style="" class=""/><path d="m495.757 269.103h-71.198c1.495-2.8 2.568-5.835 3.166-9.025 13.269-1.792 23.535-13.186 23.535-26.938v-10.048c0-8.516-6.928-15.444-15.444-15.444h-7.599c-.684-6.352-6.074-11.316-12.604-11.316h-51.633c-6.992 0-12.681 5.688-12.681 12.681v45.159c0 5.354 1.339 10.444 3.734 14.93h-57.485c2.951-5.046 4.613-10.866 4.613-16.922 0-7.695-6.26-13.954-13.955-13.954h-8.197v-89.846c0-13.425-10.922-24.347-24.347-24.347h-152.836c-13.425 0-24.347 10.922-24.347 24.347v30.02c0 4.142 3.357 7.499 7.499 7.499s7.499-3.357 7.499-7.499v-30.02c0-5.155 4.193-9.348 9.348-9.348h152.837c5.155 0 9.348 4.193 9.348 9.348v89.847h-11.999v-74.015c0-7.268-5.914-13.182-13.183-13.182h-121.17c-7.269 0-13.183 5.914-13.183 13.182v74.015h-11.997v-24.807c0-4.142-3.357-7.499-7.499-7.499s-7.499 3.357-7.499 7.499v24.807h-8.197c-7.695 0-13.955 6.259-13.955 13.954 0 6.056 1.662 11.876 4.613 16.922h-45.085c-8.625 0-15.642 7.017-15.642 15.642v18.646c0 8.625 7.017 15.642 15.642 15.642h9.655v177.964c0 8.272 6.73 15.002 15.002 15.002h15.811c8.272 0 15.002-6.73 15.002-15.002v-177.963h254.014v176.7c0 8.969 7.297 16.266 16.266 16.266h127.516c8.969 0 16.266-7.297 16.266-16.266v-118.412c0-4.142-3.357-7.499-7.499-7.499s-7.499 3.357-7.499 7.499v23.196h-130.051v-81.485h130.051v23.229c0 4.142 3.357 7.499 7.499 7.499s7.499-3.357 7.499-7.499v-23.229h10.368c8.625 0 15.642-7.017 15.642-15.642v-18.646c.001-8.625-7.016-15.642-15.641-15.642zm-67.464-46.456h7.523c.245 0 .445.2.445.445v10.048c0 5.236-3.324 9.699-7.968 11.422zm-61.995-11.315h46.996v42.841c0 6.418-3.611 12.145-9.303 14.93h-28.391c-5.692-2.786-9.303-8.512-9.303-14.93v-42.841zm-245.822-45.302h117.537v72.197h-117.537zm166.656 87.196c-.39 6.849-4.598 13.008-10.822 15.878h-194.132c-6.223-2.869-10.431-9.029-10.822-15.878zm-230.807 243.775-15.814-.003v-177.964h15.817zm414.065-81.484v80.216c0 .699-.568 1.267-1.267 1.267h-127.517c-.699 0-1.267-.568-1.267-1.267v-80.216zm26.011-112.125c0 .354-.289.643-.643.643h-479.902c-.354 0-.644-.289-.644-.643v-18.646c0-.354.289-.644.644-.644h479.901c.354 0 .643.289.643.644v18.646z" fill="#272343" data-original="#000000" style="" class=""/><path d="m437.905 147.761c40.738 0 73.881-33.143 73.881-73.881s-33.143-73.88-73.881-73.88-73.88 33.142-73.88 73.88 33.142 73.881 73.88 73.881zm0-132.762c32.468 0 58.882 26.414 58.882 58.881 0 32.468-26.414 58.882-58.882 58.882-32.467 0-58.881-26.414-58.881-58.882 0-32.467 26.414-58.881 58.881-58.881z" fill="#272343" data-original="#000000" style="" class=""/></g></g></g></g></svg>
